<?xml version="1.0" encoding="UTF-8" standalone="no"?>
<svg
   xmlns:dc="http://purl.org/dc/elements/1.1/"
   xmlns:cc="http://creativecommons.org/ns#"
   xmlns:rdf="http://www.w3.org/1999/02/22-rdf-syntax-ns#"
   xmlns:svg="http://www.w3.org/2000/svg"
   xmlns="http://www.w3.org/2000/svg"
   xmlns:sodipodi="http://sodipodi.sourceforge.net/DTD/sodipodi-0.dtd"
   xmlns:inkscape="http://www.inkscape.org/namespaces/inkscape"
   version="1.0"
   width="155.37711"
   height="160.5291"
   id="svg2"
   sodipodi:version="0.32"
   inkscape:version="0.47 r22583"
   sodipodi:docname="logo.svg"
   inkscape:output_extension="org.inkscape.output.svg.inkscape"
   sodipodi:modified="true"
   inkscape:export-filename="/home/billy/code/wesnoth/src/ana/logo.png"
   inkscape:export-xdpi="400"
   inkscape:export-ydpi="400">
  <metadata
     id="metadata48">
    <rdf:RDF>
      <cc:Work
         rdf:about="">
        <dc:format>image/svg+xml</dc:format>
        <dc:type
           rdf:resource="http://purl.org/dc/dcmitype/StillImage" />
        <dc:title></dc:title>
      </cc:Work>
    </rdf:RDF>
  </metadata>
  <sodipodi:namedview
     inkscape:cy="82.905649"
     inkscape:cx="199.09833"
     inkscape:zoom="2.3394383"
     inkscape:window-height="829"
     inkscape:window-width="1440"
     inkscape:pageshadow="2"
     inkscape:pageopacity="0.0"
     guidetolerance="10.0"
     gridtolerance="10.0"
     objecttolerance="10.0"
     borderopacity="1.0"
     bordercolor="#666666"
     pagecolor="#ffffff"
     id="base"
     inkscape:window-x="0"
     inkscape:window-y="24"
     inkscape:current-layer="g2342"
     showgrid="false"
     inkscape:window-maximized="1"
     inkscape:snap-global="false">
    <inkscape:grid
       type="xygrid"
       id="grid3839"
       empspacing="5"
       visible="true"
       enabled="true"
       snapvisiblegridlinesonly="true" />
  </sodipodi:namedview>
  <defs
     id="defs4">
    <inkscape:perspective
       sodipodi:type="inkscape:persp3d"
       inkscape:vp_x="0 : 243.82591 : 1"
       inkscape:vp_y="0 : 1000 : 0"
       inkscape:vp_z="587.38898 : 243.82591 : 1"
       inkscape:persp3d-origin="293.69449 : 162.55061 : 1"
       id="perspective2918" />
    <linearGradient
       id="Grad1"
       x1="41.194874"
       y1="616.47717"
       x2="118.93135"
       y2="527.55511"
       gradientUnits="userSpaceOnUse"
       gradientTransform="matrix(4.556763,0,0,-4.315033,25.816852,2748.7314)">
      <stop
         offset="0"
         stop-color="#bb0000"
         id="stop7" />
      <stop
         offset="1"
         stop-color="#5f0000"
         id="stop9" />
    </linearGradient>
    <linearGradient
       id="Grad2"
       x1="530.80951"
       y1="486.63101"
       x2="174.80548"
       y2="211.22995"
       gradientUnits="userSpaceOnUse"
       gradientTransform="matrix(0.960006,0,0,0.960006,2.4684814e-6,-3e-6)">
      <stop
         offset="0"
         stop-color="#9a0000"
         id="stop12" />
      <stop
         offset="1"
         stop-color="#f22803"
         id="stop14" />
    </linearGradient>
    <linearGradient
       id="Grad3"
       x1="187.87357"
       y1="224.59892"
       x2="581.83746"
       y2="483.10001"
       gradientUnits="userSpaceOnUse"
       gradientTransform="matrix(0.960006,0,0,0.960006,2.4684814e-6,-1e-5)">
      <stop
         offset="0"
         stop-color="#ec6c60"
         id="stop17" />
      <stop
         offset="1"
         stop-color="#d11412"
         id="stop19" />
    </linearGradient>
    <linearGradient
       id="Grad4"
       x1="250.39845"
       y1="101.53633"
       x2="412.0943"
       y2="264.54187"
       gradientUnits="userSpaceOnUse"
       gradientTransform="matrix(0.960006,0,0,0.960006,2.4684814e-6,-3e-6)">
      <stop
         offset="0"
         stop-color="#ffd9d9"
         id="stop22" />
      <stop
         offset="1"
         stop-color="#ff2727"
         id="stop24" />
    </linearGradient>
    <radialGradient
       id="Grad5"
       cx="295.47125"
       cy="186.09634"
       r="179.55"
       gradientUnits="userSpaceOnUse"
       gradientTransform="matrix(1.14292e-8,1.531256,-0.876504,-2.165967e-5,451.06789,-254.78987)">
      <stop
         offset="0"
         stop-color="#ffffff"
         id="stop27" />
      <stop
         offset="0.5"
         stop-color="#ffffff"
         id="stop29" />
      <stop
         offset="1"
         stop-color="#d5d5d5"
         id="stop31" />
    </radialGradient>
  </defs>
  <g
     id="g2342"
     transform="matrix(0.185336,0,0,0.185336,136.82398,-51.944208)">
    <path
       style="fill:#970000;fill-opacity:1;stroke:none"
       d="m -614.61996,1019.0606 c -19.39569,-6.9136 -33.58991,-27.63033 -33.67943,-49.15573 -0.12518,-30.08765 21.82857,-52.18729 51.84266,-52.18729 30.01402,0 51.96772,22.09964 51.8426,52.18729 -0.1527,36.73903 -35.40235,61.49013 -70.00583,49.15573 l 0,0 z"
       id="path4960" />
    <path
       style="fill:#970000;fill-opacity:1;stroke:none"
       d="m -704.5683,765.36008 c -19.39569,-6.9136 -33.58996,-27.6303 -33.67942,-49.15564 -0.12518,-30.08773 21.82851,-52.18738 51.8426,-52.18738 30.01408,0 51.96772,22.09965 51.84265,52.18738 -0.1527,36.73901 -35.40235,61.49 -70.00583,49.15564 l 0,0 z"
       id="path4962" />
    <path
       style="fill:#970000;fill-opacity:1;stroke:none"
       d="m -597.31478,498.75108 c -19.3957,-6.91355 -33.58992,-27.63025 -33.67943,-49.15564 -0.12518,-30.08773 21.82857,-52.18732 51.8426,-52.18732 30.01408,0 51.96772,22.09959 51.84265,52.18732 -0.15269,36.73901 -35.40235,61.49005 -70.00582,49.15564 l 0,0 z"
       id="path4964" />
    <path
       style="fill:#970000;fill-opacity:1;stroke:none"
       d="m -338.36794,383.91986 c -19.39569,-6.91355 -33.58991,-27.63025 -33.67942,-49.15564 -0.12518,-30.08774 21.82857,-52.18738 51.84265,-52.18738 30.01403,0 51.96772,22.09964 51.8426,52.18738 -0.1527,36.739 -35.4023,61.48999 -70.00583,49.15564 l 0,0 z"
       id="path4966" />
    <path
       style="fill:#970000;fill-opacity:1;stroke:none"
       d="m -62.36693,511.8909 c -19.395746,-6.91355 -33.589966,-27.63025 -33.679479,-49.15564 -0.125178,-30.08768 21.828571,-52.18732 51.842653,-52.18732 30.014082,0 51.9677233,22.09964 51.8425993,52.18732 -0.152695,36.739 -35.4022963,61.49005 -70.0057733,49.15564 l 0,0 z"
       id="path4968" />
    <path
       style="fill:#970000;fill-opacity:1;stroke:none"
       d="M 30.098998,759.3059 C 10.703306,752.39234 -3.4909681,731.67565 -3.5804271,710.15025 -3.7056051,680.06252 18.248144,657.96288 48.262172,657.96288 c 30.01408,0 51.967718,22.09964 51.842648,52.18737 -0.152692,36.73901 -35.402348,61.49 -70.005822,49.15565 l 0,0 z"
       id="path4970" />
    <a
       id="a4982"
       transform="translate(-448.95658,249.75134)">
      <path
         id="path4974"
         d="m 99.075296,728.9995 -28.43085,-35.20811 22.206695,-0.6601 22.206639,-0.6601 0,-30.82094 0,-30.82094 -17.058314,-3.79511 c -21.723087,-4.83289 -49.748619,-18.36372 -66.796791,-32.24969 -7.315524,-5.95853 -14.202583,-10.50946 -15.304582,-10.1131 -3.58198,1.28847 -48.08634,42.17228 -48.269737,44.34293 -0.0982,1.15919 6.020579,9.08226 13.596765,17.60683 l 13.7749278,15.49926 -18.9642598,1.38402 c -53.496838,3.90437 -70.857469,4.32043 -70.857469,1.69832 0,-4.29485 14.374056,-84.32679 15.342729,-85.42517 0.485604,-0.551 7.351729,6.05241 15.257424,14.67416 l 14.374002,15.67601 25.738442,-22.14157 25.7383889,-22.14157 -9.9574286,-17.47307 C -17.55531,532.17994 -27.937049,501.47684 -27.937049,490.3798 c 0,-9.25038 -4.673296,-10.35255 -36.550265,-8.61969 l -29.927214,1.62688 1.313291,22.0124 1.31329,22.01234 -6.706198,-4.78622 c -14.765725,-10.53832 -64.396015,-49.58772 -64.845845,-51.02096 -0.44784,-1.42789 62.40914,-53.65919 66.60573,-55.34607 1.051927,-0.42302 1.91258,8.65843 1.91258,20.1807 l 0,20.94952 32.28914,0 c 17.759043,0 32.289139,-0.56271 32.289139,-1.25044 0,-10.16321 9.342276,-41.20106 17.325884,-57.56194 22.982799,-47.09873 59.602451,-76.7356 109.557992,-88.66717 10.549055,-2.51959 20.121725,-5.52262 21.272555,-6.67345 1.20932,-1.20932 1.39778,-14.87094 0.44675,-32.369 l -1.64587,-30.27663 -20.624273,0 c -11.370484,0 -20.279384,-0.93878 -19.855559,-2.09231 0.423015,-1.15083 12.516618,-17.29993 26.875082,-35.88693 l 26.10621,-33.79451 14.6202,18.01253 c 8.04107,9.90687 20.84625,25.79655 28.45588,35.3103 l 13.83579,17.29777 -21.69643,0.6601 -21.69643,0.6601 0,31.84524 0,31.84519 19.98727,3.92714 c 22.83582,4.48688 47.57111,15.18189 67.59075,29.22487 l 13.79737,9.67831 20.49904,-18.71433 c 11.2745,-10.29293 21.66336,-20.1172 23.08634,-21.83181 2.02066,-2.43472 -0.43866,-6.60919 -11.22895,-19.06154 -10.62724,-12.26395 -12.88282,-16.06094 -9.77231,-16.45024 9.53932,-1.19377 84.54823,-5.09399 85.21151,-4.43065 0.81063,0.81058 -12.4536,76.06784 -14.68722,83.33125 -1.21908,3.96415 -3.39707,2.42171 -15.95864,-11.30153 l -14.54693,-15.89222 -19.14058,16.92213 c -10.52732,9.3072 -21.08042,18.69669 -23.4513,20.86562 -4.18716,3.83045 -4.10045,4.24893 3.02623,14.60725 11.56008,16.80203 20.82326,38.59153 25.00653,58.82198 l 3.85268,18.63216 27.15068,0 27.15064,0 0,-21.91048 c 0,-12.05076 0.49586,-21.91053 1.10243,-21.91053 1.80208,0 70.76817,53.44342 69.97237,54.2232 -0.40197,0.39388 -16.29856,13.29596 -35.32611,28.67165 l -34.59549,27.95588 -0.6601,-21.983 -0.66009,-21.98304 -27.59292,0 -27.59291,0 0,8.74093 c 0,20.20266 -14.88507,59.06931 -31.06218,81.10691 l -7.92264,10.79278 21.26554,21.1771 c 11.696,11.64739 22.16191,21.17711 23.2576,21.17711 1.09563,0 8.21244,-6.78838 15.81506,-15.08536 7.60262,-8.29693 14.13104,-14.77732 14.50754,-14.40082 1.33083,1.33083 10.53417,87.64644 9.4598,88.72081 -0.59973,0.59972 -19.24511,-1.06617 -41.43416,-3.70203 -22.18905,-2.63586 -42.23227,-4.79249 -44.5404,-4.79249 -2.93122,0 0.64116,-4.87514 11.84767,-16.1682 l 16.04432,-16.1682 -21.87206,-21.82107 -21.87211,-21.82102 -10.37866,7.06306 c -24.76314,16.85221 -59.85346,29.70718 -81.0918,29.70718 l -8.85657,0 0,31.13594 0,31.13599 21.91053,0 c 12.05076,0 21.91048,0.52931 21.91048,1.17689 0,1.18887 -46.65386,62.06787 -51.7075,67.47351 -2.15176,2.30171 -8.74142,-4.52686 -31.159673,-32.28914 z"
         style="fill:#006398;fill-opacity:1;stroke:none" />
      <g
         style="font-size:172.65939331px;font-style:normal;font-weight:normal;fill:#ffffff;fill-opacity:1;stroke:none;font-family:Bitstream Vera Sans"
         id="text2840">
        <path
           d="m 73.818503,507.05389 -22.445721,0 0,-54.90568 -26.589547,0 c -4.489187,5e-5 -8.690561,1.55398 -12.604136,4.6618 -3.7985371,2.99281 -5.6977885,6.61865 -5.6977597,10.87754 -2.88e-5,5.06471 1.7265634,9.32364 5.1797817,12.7768 3.568257,3.223 7.712078,4.83448 12.431476,4.83446 l 15.712005,0 0,21.75508 -19.337852,0 c -10.129384,0 -18.7623446,-3.85605 -25.8989088,-11.56818 -7.1365982,-7.8272 -10.7048882,-17.09325 -10.7048822,-27.79816 -6e-6,-10.35951 3.280519,-19.28024 9.8415852,-26.7622 6.56103432,-7.59694 14.8486769,-11.39545 24.8629528,-11.39552 l 55.251006,0 0,77.52406"
           style="font-variant:normal;font-weight:bold;font-stretch:normal;fill:#ffffff;font-family:Cupertino;-inkscape-font-specification:Cupertino Bold"
           id="path2845" />
        <path
           d="m 175.83323,507.05389 -23.48168,0 0,-37.46708 c -7e-5,-2.87762 -0.63316,-5.17974 -1.89925,-6.90638 -1.26624,-1.84165 -3.10794,-3.79846 -5.52511,-5.87042 l -3.97116,-3.28053 c -2.5324,-1.61143 -5.12229,-2.41717 -7.76967,-2.41723 l -26.41689,0 0,55.94164 -21.927744,0 0,-77.52406 53.179094,0 c 5.64014,7e-5 10.53215,1.03603 14.67605,3.10787 4.25885,1.84177 8.28757,5.12229 12.08615,9.84158 1.95672,1.95687 3.56821,3.79857 4.83447,5.5251 1.26608,1.72665 2.41714,3.56835 3.45319,5.5251 1.8416,3.45324 2.76245,7.4244 2.76255,11.9135 l 0,41.61091"
           style="font-variant:normal;font-weight:bold;font-stretch:normal;fill:#ffffff;font-family:Cupertino;-inkscape-font-specification:Cupertino Bold"
           id="path2847" />
        <path
           d="m 277.50263,507.05389 -22.44572,0 0,-54.90568 -26.58955,0 c -4.48918,5e-5 -8.69056,1.55398 -12.60413,4.6618 -3.79854,2.99281 -5.69779,6.61865 -5.69776,10.87754 -3e-5,5.06471 1.72656,9.32364 5.17978,12.7768 3.56826,3.223 7.71208,4.83448 12.43148,4.83446 l 15.712,0 0,21.75508 -19.33785,0 c -10.12939,0 -18.76235,-3.85605 -25.89891,-11.56818 -7.1366,-7.8272 -10.70489,-17.09325 -10.70488,-27.79816 -1e-5,-10.35951 3.28052,-19.28024 9.84158,-26.7622 6.56104,-7.59694 14.84868,-11.39545 24.86295,-11.39552 l 55.25101,0 0,77.52406"
           style="font-variant:normal;font-weight:bold;font-stretch:normal;fill:#ffffff;font-family:Cupertino;-inkscape-font-specification:Cupertino Bold"
           id="path2849" />
      </g>
    </a>
    <path
       style="fill:#006398;fill-opacity:1;stroke:none"
       d="m -459.59586,587.20888 c -12.63743,-12.68501 -24.16719,-23.06367 -25.62169,-23.06367 -1.45454,0 -8.7009,6.89822 -16.10307,15.3294 l -13.45848,15.32945 -1.58145,-6.68057 c -2.33651,-9.87018 -9.897,-81.47607 -8.72621,-82.64681 1.01524,-1.01529 72.30134,6.99109 82.58925,9.2758 5.26433,1.16912 4.73259,2.07655 -9.79373,16.7151 l -15.36026,15.47886 24.17474,24.09246 24.17474,24.09246 -7.33775,7.57057 c -4.03576,4.16385 -7.93198,7.57063 -8.65833,7.57063 -0.72636,0 -11.66034,-10.37866 -24.29776,-23.06368 z"
       id="path4976" />
    <path
       style="fill:#970000;fill-opacity:1;stroke:none"
       d="m -338.36794,1140.9127 c -19.39569,-6.9136 -33.58991,-27.6303 -33.67943,-49.1557 -0.12517,-30.0877 21.82858,-52.1873 51.8426,-52.1873 30.01409,0 51.96778,22.0996 51.84266,52.1873 -0.1527,36.739 -35.40235,61.49 -70.00583,49.1557 l 0,0 z"
       id="path4978" />
    <path
       style="fill:#970000;fill-opacity:1;stroke:none"
       d="m -77.813118,1031.3925 c -32.538472,-14.9263 -41.792742,-58.76644 -17.752029,-84.09641 26.02414,-27.41972 72.424732,-19.3344 86.8206925,15.12852 14.1954082,33.98275 -11.6876905,73.19989 -48.3113365,73.19989 -6.342534,0 -15.683299,-1.9044 -20.757327,-4.232 z"
       id="path4980" />
  </g>
</svg>
