<?xml version="1.0" encoding="UTF-8"?>
<svg xmlns="http://www.w3.org/2000/svg">
  <defs>
    <style>
      .cls-1 {
        fill: #ffffff;
      }

      .cls-2 {
        fill: #000000;
      }
    </style>
  </defs>
  <path
     class="cls-1"
     d="m 7.1757812,-0.42578125 c -0.3906082,0.005953 -0.7774645,0.0772504 -1.1445312,0.2109375 L 5.7851562,-0.125 C 3.2579805,0.74548362 1.267387,2.7359682 0.3984375,5.2636719 L 0.3125,5.4980469 C -0.1555025,6.7776115 0.16149262,8.2124716 1.125,9.1757812 l 1.5019531,1.5019528 c 0.4212213,0.420969 0.9428806,0.727511 1.515625,0.890625 l 0.4433594,0.126953 1.859375,1.861329 c 0,0 -0.5648895,0.82256 -1.5527344,2.761718 -0.02893,0.05718 -0.056284,0.115146 -0.082031,0.173829 -0.4094618,0.92633 -0.4909743,1.949761 -0.3066407,2.941406 0.146322,1.003834 0.5114438,1.967099 1.1269532,2.77539 0.084251,0.109431 0.174904,0.21378 0.2714844,0.3125 1.0772816,1.112684 2.466516,1.8739 3.984375,2.181641 l -0.1523438,-0.0332 0.9238278,0.230469 c 0.713539,0.176483 1.464528,0.123864 2.146485,-0.150394 0.145125,9.82414 1.012194,17.104112 3.207031,23.296875 L 9.9785156,54.197266 C 9.71951,54.461134 9.5039471,54.764372 9.3398438,55.095703 l -2.3027344,4.652344 c -1.4810518,2.993733 1.6727252,6.163324 4.6738286,4.697265 l 4.59375,-2.246093 c 0.3374,-0.165057 0.646034,-0.383343 0.914062,-0.646485 l 3.925781,-3.851562 c 0.721921,1.022895 1.336462,2.120812 2.140625,3.082031 0.0071,0.0085 0.01428,0.01696 0.02148,0.02539 3.00925,3.527254 6.221979,6.876177 9.623047,10.027344 l 0.65625,0.625 c 1.353166,1.28767 3.478993,1.285953 4.830078,-0.0039 l 0.671875,-0.640625 c 3.39422,-3.145638 6.601535,-6.487542 9.605468,-10.007812 0.0072,-0.0084 0.01436,-0.01689 0.02148,-0.02539 0.804335,-0.960887 1.416896,-2.059225 2.138672,-3.082031 l 3.86914,3.794922 c 0.263868,0.259006 0.567107,0.474569 0.898438,0.638672 l 4.652344,2.302734 c 2.993732,1.481051 6.163323,-1.672725 4.697265,-4.673828 l -2.246094,-4.59375 c -0.165057,-0.3374 -0.383343,-0.646035 -0.646484,-0.914063 l -6.087891,-6.205078 c 0.399023,-1.125081 0.848912,-2.233741 1.146485,-3.390625 1.413964,-5.439712 1.896946,-11.97785 2.015625,-20.021484 0.632047,0.274928 1.331194,0.357137 2.009775,0.236321 l 0.865235,-0.154297 c 0.02609,-0.0043 0.05214,-0.0088 0.07813,-0.01367 1.521149,-0.307062 2.912713,-1.068731 3.992187,-2.183593 0.09518,-0.0982 0.184528,-0.201893 0.267578,-0.310547 0.619229,-0.810888 0.98497,-1.778662 1.128907,-2.78711 0.182975,-0.991249 0.102546,-2.016256 -0.308594,-2.941406 -0.02523,-0.05603 -0.05193,-0.11139 -0.08008,-0.166016 -0.98683,-1.937195 -1.587891,-2.724609 -1.587891,-2.724609 l 1.896484,-1.898438 0.44336,-0.126953 c 0.572744,-0.163114 1.094404,-0.469656 1.515625,-0.890625 L 70.875,9.1757812 C 71.836067,8.214402 72.153615,6.7835347 71.689453,5.5058594 L 71.599609,5.2597656 C 70.729004,2.7328542 68.738377,0.74211808 66.210938,-0.12695312 l -0.234376,-0.0859375 C 64.697936,-0.68055024 63.264144,-0.36438464 62.300781,0.59765625 L 60.796875,2.0996094 c -0.421963,0.4215504 -0.729208,0.9439337 -0.892578,1.5175781 l -0.126953,0.4433594 -1.878906,1.8789062 c 0,0 -2.84962,-1.6244338 -2.904297,-1.6484375 -0.642436,-0.2867245 -1.33753,-0.4350527 -2.041016,-0.4335937 -0.289356,2.874e-4 -0.574664,0.052071 -0.859375,0.1015625 -1.025195,0.1390147 -2.006133,0.5191687 -2.830078,1.1464844 -0.109377,0.08362 -0.213725,0.1736199 -0.3125,0.2695312 -1.112941,1.0773385 -1.873991,2.4682216 -2.181641,3.9863281 l 0.0332,-0.1523437 -0.230468,0.9238276 c -0.101571,0.413841 -0.126723,0.84275 -0.07422,1.265626 -2.79318,-0.970552 -5.48611,-2.2031389 -7.916012,-3.9238286 -0.02196,-0.015227 -0.0441,-0.030202 -0.06641,-0.044922 l -0.55859,-0.376953 c -1.182788,-0.7975988 -2.731274,-0.7975988 -3.914062,0 l -0.558594,0.3769531 c -0.02231,0.01472 -0.04445,0.029695 -0.06641,0.044922 -2.454508,1.7380647 -5.177633,2.9749485 -8.001953,3.9472655 0.05401,-0.368911 0.04873,-0.744082 -0.01563,-1.111328 L 25.246094,9.4453125 C 25.241195,9.41856 25.235985,9.3918655 25.230464,9.3652345 24.922332,7.8464376 24.161947,6.4552196 23.048828,5.3769531 22.949478,5.2803126 22.844475,5.1896582 22.734375,5.1054688 21.912513,4.4796683 20.934488,4.1009274 19.912109,3.9609375 19.624599,3.9103198 19.335292,3.8592154 19.042969,3.859375 18.340662,3.8584392 17.64526,4.0046849 17.003906,4.2910156 c -0.05468,0.024004 -0.108731,0.049403 -0.162109,0.076172 -1.938547,0.9880002 -2.740235,1.5722655 -2.740235,1.5722655 L 12.220703,4.0605469 12.09375,3.6171875 C 11.930636,3.0444431 11.624094,2.5227838 11.203125,2.1015625 L 9.7011719,0.59960938 C 9.0324891,-0.06935195 8.1215429,-0.4392257 7.1757812,-0.42578125 Z M 36,16.3125 c 4.195509,2.525225 8.736419,4.432228 13.5625,5.330078 0.01561,0.0027 0.03123,0.0053 0.04687,0.0078 0.213274,0.03669 0.43065,0.03962 0.644531,0.07227 -0.01233,11.804442 -0.880968,18.960185 -3.039062,24.410156 -0.11144,0.281498 -0.224865,0.55626 -0.339844,0.822266 v 0.002 c -0.329193,0.762258 -0.687377,1.499947 -1.078125,2.226563 -1.135683,2.069524 -2.472909,4.021624 -3.990234,5.830078 -9.3e-4,0.0011 -10e-4,0.0028 -0.002,0.0039 C 39.987026,57.153152 37.983612,59.116598 36,61.097656 34.016512,59.116289 32.012795,57.151524 30.195312,55.015625 l -0.002,-0.0039 c -1.517969,-1.810174 -2.854769,-3.76338 -3.99214,-5.833991 -0.531395,-0.986496 -1.004152,-2.002835 -1.416016,-3.044922 -0.478335,-1.218628 -0.883539,-2.464871 -1.210937,-3.732421 -6.64e-4,-0.0026 -0.0013,-0.0052 -0.002,-0.0078 -1.281041,-4.916735 -1.820691,-11.388406 -1.830078,-20.669922 0.215147,-0.0328 0.433903,-0.03537 0.648437,-0.07227 0.01564,-0.0025 0.03126,-0.0051 0.04687,-0.0078 C 27.263537,20.744672 31.804494,18.837669 36,16.3125 Z"
     id="frame" />
  <path
     class="cls-2"
     d="M 7.2265625 3.0742188 L 6.9257812 3.1835938 C 5.4147335 3.7035422 4.228792 4.8912475 3.7089844 6.4023438 L 3.5996094 6.7011719 L 5.1015625 8.203125 L 6.4179688 8.578125 L 11.28125 13.443359 L 11.181641 13.552734 C 9.9016836 14.826811 8.8318226 16.297215 8.0117188 17.90625 C 7.876489 18.212649 7.8459896 18.555589 7.9257812 18.880859 C 7.9785043 19.320039 8.148343 19.735741 8.4160156 20.087891 C 9.0017533 20.693056 9.7566156 21.106099 10.582031 21.273438 L 11.505859 21.503906 L 11.169922 20.613281 C 10.647652 19.681758 10.769814 18.52281 11.472656 17.71875 C 11.916431 16.986926 12.475105 16.331608 13.128906 15.779297 L 57.173828 58.998047 L 61.826172 61.300781 L 59.580078 56.707031 L 16.304688 12.603516 C 16.850634 11.955279 17.498639 11.401468 18.222656 10.960938 C 18.677564 10.599616 19.227814 10.379616 19.806641 10.330078 C 20.265426 10.355148 20.717218 10.461532 21.138672 10.644531 L 21.955078 10.925781 L 21.800781 10.060547 C 21.633301 9.2335246 21.219299 8.4777851 20.613281 7.890625 C 20.260959 7.6230257 19.843609 7.4527846 19.404297 7.4003906 C 19.28532 7.3708487 19.163606 7.3574366 19.041016 7.3574219 C 18.830769 7.3570549 18.62347 7.4002731 18.431641 7.4863281 C 16.822759 8.3061877 15.353966 9.3764541 14.080078 10.65625 L 13.96875 10.755859 L 9.1035156 5.8925781 L 8.7285156 4.5761719 L 7.2265625 3.0742188 z "
     id="leftsword" />
  <path
     class="cls-2"
     d="m 64.773438,3.0742188 -1.503907,1.5019531 -0.375,1.3164062 -4.863281,4.8632809 -0.111328,-0.09961 C 56.646229,9.3760585 55.177441,8.3061099 53.568359,7.4863281 53.376632,7.4007589 53.168938,7.3568236 52.958984,7.3574219 c -0.123009,-6.68e-5 -0.245599,0.014355 -0.365234,0.042969 -0.439451,0.052871 -0.856817,0.22211 -1.208984,0.4902344 -0.604974,0.5856214 -1.018314,1.3408008 -1.185547,2.1660157 l -0.230469,0.923828 0.892578,-0.335938 c 0.422594,-0.182799 0.874238,-0.289262 1.333984,-0.314453 0.569663,0.04734 1.112607,0.262073 1.560547,0.617188 0.731891,0.443439 1.386903,1.002805 1.939453,1.65625 l -43.21875,44.044922 -2.302734,4.652343 4.505362,-2.710132 44.191904,-42.811352 c 0.647816,0.546115 1.202573,1.193881 1.642578,1.917969 0.712103,0.807185 0.838098,1.975572 0.314453,2.916015 l -0.28125,0.816407 0.865234,-0.154297 c 0.827413,-0.167023 1.584707,-0.581083 2.171875,-1.1875 0.268192,-0.3512 0.436858,-0.768143 0.488282,-1.207032 0.08042,-0.325396 0.05018,-0.668307 -0.08594,-0.974609 -0.818867,-1.607476 -1.887476,-3.074919 -3.166016,-4.347656 l -0.101562,-0.115235 4.863281,-4.865234 1.316407,-0.375 1.501953,-1.5019531 -0.109375,-0.3007813 C 67.770558,4.8897683 66.583204,3.7031365 65.072266,3.1835938 Z"
     id="rightsword" />
  <path
     class="cls-1"
     d="m 33.075229,63.704531 c -4.37141,-4.411734 -6.449402,-6.8357 -8.522834,-9.941834 -3.752637,-5.621692 -5.561571,-11.64614 -6.28034,-20.915959 -0.191079,-2.464312 -0.397427,-9.551552 -0.354449,-12.173933 l 0.03892,-2.375 0.5,-0.03027 c 5.268081,-0.318904 11.368839,-2.373075 16.354695,-5.506748 l 1.213432,-0.762656 1.153436,0.753538 c 1.3925,0.909718 5.187504,2.794572 6.881792,3.417962 3.17943,1.169826 7.239614,2.065672 9.362117,2.065672 h 0.597028 l -6.25e-4,4.71875 c -0.0024,18.007008 -2.341475,26.417037 -9.742996,35.03125 -2.656069,3.091248 -7.937814,8.499253 -8.302017,8.500476 -0.07801,2.5e-4 -1.382179,-1.251301 -2.898144,-2.78125 z m 4.828594,-10.312514 c 4.681768,-4.742226 7.113813,-9.681989 8.108458,-16.469212 0.424026,-2.893447 0.514885,-4.188042 0.59239,-8.440615 l 0.0741,-4.065617 -5.251802,-1.653134 c -2.888493,-0.909224 -5.329122,-1.653085 -5.42362,-1.653024 -0.270352,1.75e-4 -10.533211,3.254355 -10.662788,3.380992 -0.162355,0.158673 0.124825,8.26388 0.367387,10.368898 0.820134,7.117366 2.648852,11.786383 6.443227,16.45062 1.056152,1.298275 3.590602,3.799255 3.850694,3.799842 0.112565,2.5e-4 0.968446,-0.773184 1.901957,-1.71875 z"
     id="hideswords" />
  <path
     class="cls-2"
     d="M 21.7966,18.2006 A 37.4937,37.4937 0 0 0 36,12.36 a 37.4914,37.4914 0 0 0 14.2031,5.8408 30.8091,30.8091 0 0 0 3.5469,0.4 q 0.011,1.1182 0.0138,2.19 9e-4,0.35 9e-4,0.6948 c 0.0017,12.1423 -0.8585,19.7827 -3.2951,25.936 q -0.1846,0.4663 -0.3814,0.9216 c -0.3708,0.8586 -0.7749,1.6923 -1.2151,2.51 A 39.5688,39.5688 0 0 1 44.487,57.2673 107.4762,107.4762 0 0 1 36,66.1587 107.4623,107.4623 0 0 1 27.5129,57.2666 39.7155,39.7155 0 0 1 23.1267,50.8536 32.0485,32.0485 0 0 1 21.53,47.4205 35.875,35.875 0 0 1 20.1853,43.2753 c -1.4186,-5.4447 -1.952,-12.2287 -1.9507,-21.79 q 0,-0.3453 9e-4,-0.6953 0.0027,-1.0714 0.0138,-2.1893 a 30.8334,30.8334 0 0 0 3.5469,-0.4 M 36,9.9535 35.4413,10.3298 A 35.0415,35.0415 0 0 1 20.063,16.4336 q -1.4187,0.173 -2.825,0.2043 l -0.9651,0.0219 -0.0121,0.9653 q -0.0078,0.6135 -0.0132,1.2135 -0.0123,1.3566 -0.0124,2.6465 c 0.0018,12.7323 0.9213,20.7852 3.7711,27.4888 0.023,0.054 0.0459,0.1076 0.0691,0.1614 a 34.2012,34.2012 0 0 0 1.5691,3.1727 42.2738,42.2738 0 0 0 4.3245,6.23 115.1439,115.1439 0 0 0 9.34,9.7287 l 0.6907,0.66 0.6907,-0.66 a 115.1571,115.1571 0 0 0 9.34,-9.7287 42.0855,42.0855 0 0 0 4.3245,-6.2309 34.4134,34.4134 0 0 0 1.6381,-3.333 36.7185,36.7185 0 0 0 1.7561,-5.195 c 1.4876,-5.723 2.0139,-12.6623 2.0151,-22.2939 q 0,-1.29 -0.0124,-2.646 -0.0054,-0.6 -0.0132,-1.214 L 55.7265,16.6599 54.7614,16.638 q -1.407,-0.0324 -2.825,-0.2043 A 35.042,35.042 0 0 1 36.5584,10.33 L 36,9.9535"
     id="innershield" />
  <path
     class="cls-2"
     d="m 36,20.7266 -8.9549,2.8225 -2.03,0.64 q -0.0233,1.6794 -0.01,3.2431 C 25.0588,33.2888 25.537,37.9994 26.78,42.071 A 26.9542,26.9542 0 0 0 28.2376,45.8385 30.047,30.047 0 0 0 36,55.6089 30.0459,30.0459 0 0 0 43.7624,45.8376 26.9724,26.9724 0 0 0 45.22,42.0709 c 1.2431,-4.0716 1.7215,-8.7821 1.7754,-14.6386 q 0.0142,-1.5657 -0.01,-3.2434 l -2.03,-0.64 L 36,20.7266"
     id="outershield" />
</svg>
